STARTFONT 2.1
FONT -FontForge-jackash-Medium-R-Normal--16-150-75-75-P-67-ISO10646-1
SIZE 15 75 75
FONTBOUNDINGBOX 8 16 0 -4
COMMENT "Generated by fontforge, http://fontforge.sourceforge.net"
STARTPROPERTIES 26
FONT_NAME "jackash"
FONT_ASCENT 12
FONT_DESCENT 4
UNDERLINE_POSITION -100
UNDERLINE_THICKNESS 50
QUAD_WIDTH 16
X_HEIGHT 6
CAP_HEIGHT 9
FONTNAME_REGISTRY ""
FAMILY_NAME "jackash"
FOUNDRY "FontForge"
WEIGHT_NAME "Medium"
SETWIDTH_NAME "Normal"
SLANT "R"
ADD_STYLE_NAME ""
PIXEL_SIZE 16
POINT_SIZE 150
RESOLUTION_X 75
RESOLUTION_Y 75
RESOLUTION 75
SPACING "P"
AVERAGE_WIDTH 67
CHARSET_REGISTRY "ISO10646"
CHARSET_ENCODING "1"
FULL_NAME "jackash"
COPYRIGHT "(C)2001, 2005 Christi Alice Scarborough"
COMMENT Dedicated to the memory of Ashley "Jack" Scarborough (1975-2000)
ENDPROPERTIES
CHARS 254
STARTCHAR char0
ENCODING 0
SWIDTH 0 0
DWIDTH 0 0
BBX 1 1 7 -4
BITMAP
00
ENDCHAR
STARTCHAR smileface
ENCODING 1
SWIDTH 1000 0
DWIDTH 9 0
BBX 8 10 0 0
BITMAP
3C
42
81
A5
81
81
A5
99
42
3C
ENDCHAR
STARTCHAR invsmileface
ENCODING 2
SWIDTH 1000 0
DWIDTH 9 0
BBX 8 10 0 0
BITMAP
3C
7E
FF
DB
FF
FF
DB
E7
7E
3C
ENDCHAR
STARTCHAR heart
ENCODING 3
SWIDTH 1000 0
DWIDTH 8 0
BBX 7 8 0 0
BITMAP
44
7C
FE
FE
FE
7C
38
10
ENDCHAR
STARTCHAR diamond
ENCODING 4
SWIDTH 1000 0
DWIDTH 8 0
BBX 7 7 0 1
BITMAP
10
38
7C
FE
7C
38
10
ENDCHAR
STARTCHAR club
ENCODING 5
SWIDTH 1000 0
DWIDTH 9 0
BBX 8 9 0 0
BITMAP
18
3C
3C
E7
E7
E7
18
18
3C
ENDCHAR
STARTCHAR spade
ENCODING 6
SWIDTH 1000 0
DWIDTH 9 0
BBX 8 9 0 0
BITMAP
18
3C
7E
FF
FF
7E
18
18
3C
ENDCHAR
STARTCHAR H18533
ENCODING 7
SWIDTH 1000 0
DWIDTH 5 0
BBX 4 4 0 2
BITMAP
60
F0
F0
60
ENDCHAR
STARTCHAR invbullet
ENCODING 8
SWIDTH 1000 0
DWIDTH 9 0
BBX 8 16 0 -4
BITMAP
FF
FF
FF
FF
FF
FF
E7
C3
C3
E7
FF
FF
FF
FF
FF
FF
ENDCHAR
STARTCHAR circle
ENCODING 9
SWIDTH 1000 0
DWIDTH 7 0
BBX 6 6 0 1
BITMAP
30
48
84
84
48
30
ENDCHAR
STARTCHAR invcircle
ENCODING 10
SWIDTH 1000 0
DWIDTH 9 0
BBX 8 16 0 -4
BITMAP
FF
FF
FF
FF
FF
E7
DB
BD
BD
DB
E7
FF
FF
FF
FF
FF
ENDCHAR
STARTCHAR male
ENCODING 11
SWIDTH 1000 0
DWIDTH 7 0
BBX 6 10 0 0
BITMAP
1C
0C
14
20
50
88
88
88
50
20
ENDCHAR
STARTCHAR female
ENCODING 12
SWIDTH 1000 0
DWIDTH 6 0
BBX 5 10 0 0
BITMAP
20
50
88
88
50
20
20
70
20
20
ENDCHAR
STARTCHAR musicalnote
ENCODING 13
SWIDTH 1000 0
DWIDTH 6 0
BBX 5 9 0 1
BITMAP
20
30
28
20
20
20
60
E0
40
ENDCHAR
STARTCHAR musicalnotedbl
ENCODING 14
SWIDTH 1000 0
DWIDTH 9 0
BBX 8 11 0 -1
BITMAP
3F
21
3F
21
21
21
21
23
67
E2
40
ENDCHAR
STARTCHAR sun
ENCODING 15
SWIDTH 1000 0
DWIDTH 8 0
BBX 7 9 0 0
BITMAP
10
10
D6
38
EE
38
D6
10
10
ENDCHAR
STARTCHAR triagrt
ENCODING 16
SWIDTH 1000 0
DWIDTH 7 0
BBX 6 11 0 0
BITMAP
80
C0
E0
F0
F8
FC
F8
F0
E0
C0
80
ENDCHAR
STARTCHAR triaglf
ENCODING 17
SWIDTH 1000 0
DWIDTH 7 0
BBX 6 11 0 0
BITMAP
04
0C
1C
3C
7C
FC
7C
3C
1C
0C
04
ENDCHAR
STARTCHAR arrowupdn
ENCODING 18
SWIDTH 1000 0
DWIDTH 6 0
BBX 5 9 0 1
BITMAP
20
70
F8
20
20
20
F8
70
20
ENDCHAR
STARTCHAR exclamdbl
ENCODING 19
SWIDTH 1000 0
DWIDTH 4 0
BBX 3 10 0 0
BITMAP
A0
A0
A0
A0
A0
A0
A0
00
A0
A0
ENDCHAR
STARTCHAR paragraph
ENCODING 20
SWIDTH 1000 0
DWIDTH 7 0
BBX 6 10 0 0
BITMAP
7C
94
94
94
74
14
14
14
14
14
ENDCHAR
STARTCHAR section
ENCODING 21
SWIDTH 1000 0
DWIDTH 7 0
BBX 6 12 0 -1
BITMAP
78
84
40
30
48
84
84
48
30
08
84
78
ENDCHAR
STARTCHAR arrowupdnbse
ENCODING 23
SWIDTH 1000 0
DWIDTH 6 0
BBX 5 10 0 0
BITMAP
20
70
F8
20
20
20
F8
70
20
F8
ENDCHAR
STARTCHAR arrowup
ENCODING 24
SWIDTH 1000 0
DWIDTH 6 0
BBX 5 10 0 0
BITMAP
20
70
F8
20
20
20
20
20
20
20
ENDCHAR
STARTCHAR arrowdown
ENCODING 25
SWIDTH 1000 0
DWIDTH 6 0
BBX 5 10 0 0
BITMAP
20
20
20
20
20
20
20
F8
70
20
ENDCHAR
STARTCHAR arrowright
ENCODING 26
SWIDTH 1000 0
DWIDTH 7 0
BBX 6 5 0 2
BITMAP
30
08
FC
08
30
ENDCHAR
STARTCHAR arrowleft
ENCODING 27
SWIDTH 1000 0
DWIDTH 7 0
BBX 6 5 0 2
BITMAP
30
40
FC
40
30
ENDCHAR
STARTCHAR arrowboth
ENCODING 29
SWIDTH 1000 0
DWIDTH 8 0
BBX 7 5 0 2
BITMAP
28
6C
FE
6C
28
ENDCHAR
STARTCHAR triagup
ENCODING 30
SWIDTH 1000 0
DWIDTH 8 0
BBX 7 7 0 1
BITMAP
10
38
38
7C
7C
FE
FE
ENDCHAR
STARTCHAR triagdn
ENCODING 31
SWIDTH 1000 0
DWIDTH 8 0
BBX 7 7 0 1
BITMAP
FE
FE
7C
7C
38
38
10
ENDCHAR
STARTCHAR char32
ENCODING 32
SWIDTH 250 0
DWIDTH 4 0
BBX 1 1 7 -4
BITMAP
00
ENDCHAR
STARTCHAR char33
ENCODING 33
SWIDTH 125 0
DWIDTH 2 0
BBX 1 10 0 0
BITMAP
80
80
80
80
80
80
80
00
80
80
ENDCHAR
STARTCHAR char34
ENCODING 34
SWIDTH 250 0
DWIDTH 4 0
BBX 3 3 0 8
BITMAP
A0
A0
A0
ENDCHAR
STARTCHAR char35
ENCODING 35
SWIDTH 375 0
DWIDTH 6 0
BBX 5 9 0 0
BITMAP
50
50
F8
50
50
50
F8
50
50
ENDCHAR
STARTCHAR char36
ENCODING 36
SWIDTH 437 0
DWIDTH 7 0
BBX 6 14 0 -2
BITMAP
10
10
38
44
80
40
30
08
04
04
88
70
10
10
ENDCHAR
STARTCHAR char37
ENCODING 37
SWIDTH 437 0
DWIDTH 7 0
BBX 6 10 0 0
BITMAP
44
C4
08
10
20
20
40
40
8C
88
ENDCHAR
STARTCHAR char38
ENCODING 38
SWIDTH 437 0
DWIDTH 7 0
BBX 6 10 0 0
BITMAP
30
48
48
50
60
94
88
88
58
24
ENDCHAR
STARTCHAR char39
ENCODING 39
SWIDTH 250 0
DWIDTH 4 0
BBX 3 3 0 9
BITMAP
20
40
80
ENDCHAR
STARTCHAR char40
ENCODING 40
SWIDTH 250 0
DWIDTH 4 0
BBX 3 10 0 0
BITMAP
20
40
80
80
80
80
80
80
40
20
ENDCHAR
STARTCHAR char41
ENCODING 41
SWIDTH 250 0
DWIDTH 4 0
BBX 3 10 0 0
BITMAP
80
40
20
20
20
20
20
20
40
80
ENDCHAR
STARTCHAR char42
ENCODING 42
SWIDTH 500 0
DWIDTH 8 0
BBX 7 7 0 1
BITMAP
92
54
38
FE
38
54
92
ENDCHAR
STARTCHAR char43
ENCODING 43
SWIDTH 375 0
DWIDTH 6 0
BBX 5 5 0 2
BITMAP
20
20
F8
20
20
ENDCHAR
STARTCHAR char44
ENCODING 44
SWIDTH 250 0
DWIDTH 4 0
BBX 3 3 0 -1
BITMAP
20
40
80
ENDCHAR
STARTCHAR char45
ENCODING 45
SWIDTH 437 0
DWIDTH 7 0
BBX 6 1 0 4
BITMAP
FC
ENDCHAR
STARTCHAR char46
ENCODING 46
SWIDTH 125 0
DWIDTH 2 0
BBX 1 2 0 0
BITMAP
80
80
ENDCHAR
STARTCHAR char47
ENCODING 47
SWIDTH 437 0
DWIDTH 7 0
BBX 6 9 0 0
BITMAP
04
04
08
10
20
20
40
80
80
ENDCHAR
STARTCHAR char48
ENCODING 48
SWIDTH 437 0
DWIDTH 7 0
BBX 6 10 0 0
BITMAP
34
48
94
94
94
A4
A4
A4
48
B0
ENDCHAR
STARTCHAR char49
ENCODING 49
SWIDTH 437 0
DWIDTH 7 0
BBX 4 10 1 0
BITMAP
20
60
A0
20
20
20
20
20
20
70
ENDCHAR
STARTCHAR char50
ENCODING 50
SWIDTH 437 0
DWIDTH 7 0
BBX 6 10 0 0
BITMAP
30
48
84
08
08
10
20
40
80
FC
ENDCHAR
STARTCHAR char51
ENCODING 51
SWIDTH 437 0
DWIDTH 7 0
BBX 6 10 0 0
BITMAP
70
88
04
08
30
08
04
04
88
70
ENDCHAR
STARTCHAR char52
ENCODING 52
SWIDTH 437 0
DWIDTH 7 0
BBX 6 10 0 0
BITMAP
0C
14
24
44
84
FC
04
04
04
04
ENDCHAR
STARTCHAR char53
ENCODING 53
SWIDTH 437 0
DWIDTH 7 0
BBX 6 10 0 0
BITMAP
FC
80
80
B0
C8
04
04
04
88
70
ENDCHAR
STARTCHAR char54
ENCODING 54
SWIDTH 437 0
DWIDTH 7 0
BBX 6 10 0 0
BITMAP
38
44
80
B0
C8
84
84
84
48
30
ENDCHAR
STARTCHAR char55
ENCODING 55
SWIDTH 437 0
DWIDTH 7 0
BBX 6 10 0 0
BITMAP
FC
04
04
08
08
10
10
10
10
10
ENDCHAR
STARTCHAR char56
ENCODING 56
SWIDTH 437 0
DWIDTH 7 0
BBX 6 10 0 0
BITMAP
30
48
84
48
30
48
84
84
48
30
ENDCHAR
STARTCHAR char57
ENCODING 57
SWIDTH 437 0
DWIDTH 7 0
BBX 6 10 0 0
BITMAP
30
48
84
84
84
4C
34
04
88
70
ENDCHAR
STARTCHAR char58
ENCODING 58
SWIDTH 125 0
DWIDTH 2 0
BBX 1 7 0 1
BITMAP
80
80
00
00
00
80
80
ENDCHAR
STARTCHAR char59
ENCODING 59
SWIDTH 250 0
DWIDTH 4 0
BBX 3 8 0 0
BITMAP
20
20
00
00
00
20
40
80
ENDCHAR
STARTCHAR char60
ENCODING 60
SWIDTH 375 0
DWIDTH 6 0
BBX 5 9 0 0
BITMAP
08
10
20
40
80
40
20
10
08
ENDCHAR
STARTCHAR char61
ENCODING 61
SWIDTH 437 0
DWIDTH 7 0
BBX 6 4 0 3
BITMAP
FC
00
00
FC
ENDCHAR
STARTCHAR char62
ENCODING 62
SWIDTH 375 0
DWIDTH 6 0
BBX 5 9 0 0
BITMAP
80
40
20
10
08
10
20
40
80
ENDCHAR
STARTCHAR char63
ENCODING 63
SWIDTH 375 0
DWIDTH 6 0
BBX 5 10 0 0
BITMAP
70
88
08
08
10
20
20
00
20
20
ENDCHAR
STARTCHAR char64
ENCODING 64
SWIDTH 437 0
DWIDTH 7 0
BBX 6 10 0 0
BITMAP
30
48
84
84
B4
B4
B8
80
40
3C
ENDCHAR
STARTCHAR char65
ENCODING 65
SWIDTH 437 0
DWIDTH 7 0
BBX 6 10 0 0
BITMAP
30
48
84
84
84
FC
84
84
84
84
ENDCHAR
STARTCHAR char66
ENCODING 66
SWIDTH 437 0
DWIDTH 7 0
BBX 6 10 0 0
BITMAP
F0
88
84
88
F0
88
84
84
88
F0
ENDCHAR
STARTCHAR char67
ENCODING 67
SWIDTH 437 0
DWIDTH 7 0
BBX 6 10 0 0
BITMAP
30
48
84
80
80
80
80
84
48
30
ENDCHAR
STARTCHAR char68
ENCODING 68
SWIDTH 437 0
DWIDTH 7 0
BBX 6 10 0 0
BITMAP
70
48
44
44
44
44
44
44
48
F0
ENDCHAR
STARTCHAR char69
ENCODING 69
SWIDTH 437 0
DWIDTH 7 0
BBX 6 10 0 0
BITMAP
FC
80
80
80
F0
80
80
80
80
FC
ENDCHAR
STARTCHAR char70
ENCODING 70
SWIDTH 375 0
DWIDTH 6 0
BBX 6 10 0 0
BITMAP
FC
80
80
80
F0
80
80
80
80
80
ENDCHAR
STARTCHAR char71
ENCODING 71
SWIDTH 437 0
DWIDTH 7 0
BBX 6 10 0 0
BITMAP
30
48
84
80
80
80
84
84
4C
34
ENDCHAR
STARTCHAR char72
ENCODING 72
SWIDTH 437 0
DWIDTH 7 0
BBX 6 10 0 0
BITMAP
84
84
84
84
FC
84
84
84
84
84
ENDCHAR
STARTCHAR char73
ENCODING 73
SWIDTH 125 0
DWIDTH 2 0
BBX 1 10 0 0
BITMAP
80
80
80
80
80
80
80
80
80
80
ENDCHAR
STARTCHAR char74
ENCODING 74
SWIDTH 437 0
DWIDTH 7 0
BBX 6 10 0 0
BITMAP
04
04
04
04
04
04
04
84
48
30
ENDCHAR
STARTCHAR char75
ENCODING 75
SWIDTH 437 0
DWIDTH 7 0
BBX 6 10 0 0
BITMAP
84
88
90
A0
C0
C0
A0
90
88
84
ENDCHAR
STARTCHAR char76
ENCODING 76
SWIDTH 437 0
DWIDTH 7 0
BBX 6 10 0 0
BITMAP
80
80
80
80
80
80
80
80
80
FC
ENDCHAR
STARTCHAR char77
ENCODING 77
SWIDTH 500 0
DWIDTH 8 0
BBX 7 10 0 0
BITMAP
44
AA
92
92
92
82
82
82
82
82
ENDCHAR
STARTCHAR char78
ENCODING 78
SWIDTH 437 0
DWIDTH 7 0
BBX 6 10 0 0
BITMAP
84
C4
A4
A4
94
94
8C
8C
84
84
ENDCHAR
STARTCHAR char79
ENCODING 79
SWIDTH 437 0
DWIDTH 7 0
BBX 6 10 0 0
BITMAP
30
48
84
84
84
84
84
84
48
30
ENDCHAR
STARTCHAR char80
ENCODING 80
SWIDTH 437 0
DWIDTH 7 0
BBX 6 10 0 0
BITMAP
F0
88
84
88
F0
80
80
80
80
80
ENDCHAR
STARTCHAR char81
ENCODING 81
SWIDTH 437 0
DWIDTH 7 0
BBX 7 11 0 -1
BITMAP
30
48
84
84
84
84
84
94
48
3C
02
ENDCHAR
STARTCHAR char82
ENCODING 82
SWIDTH 437 0
DWIDTH 7 0
BBX 6 10 0 0
BITMAP
F0
88
84
84
84
88
F0
C0
B0
8C
ENDCHAR
STARTCHAR char83
ENCODING 83
SWIDTH 437 0
DWIDTH 7 0
BBX 6 10 0 0
BITMAP
78
84
80
40
30
08
04
04
84
78
ENDCHAR
STARTCHAR char84
ENCODING 84
SWIDTH 375 0
DWIDTH 6 0
BBX 5 10 0 0
BITMAP
F8
20
20
20
20
20
20
20
20
20
ENDCHAR
STARTCHAR char85
ENCODING 85
SWIDTH 437 0
DWIDTH 7 0
BBX 6 10 0 0
BITMAP
84
84
84
84
84
84
84
84
48
30
ENDCHAR
STARTCHAR char86
ENCODING 86
SWIDTH 375 0
DWIDTH 6 0
BBX 5 10 0 0
BITMAP
88
88
88
88
88
50
50
50
20
20
ENDCHAR
STARTCHAR char87
ENCODING 87
SWIDTH 500 0
DWIDTH 8 0
BBX 7 10 0 0
BITMAP
82
82
82
82
82
92
92
92
AA
44
ENDCHAR
STARTCHAR char88
ENCODING 88
SWIDTH 375 0
DWIDTH 6 0
BBX 5 10 0 0
BITMAP
88
88
88
50
20
20
50
88
88
88
ENDCHAR
STARTCHAR char89
ENCODING 89
SWIDTH 375 0
DWIDTH 6 0
BBX 5 10 0 0
BITMAP
88
88
88
50
50
20
20
20
20
20
ENDCHAR
STARTCHAR char90
ENCODING 90
SWIDTH 437 0
DWIDTH 7 0
BBX 6 10 0 0
BITMAP
FC
04
04
08
10
20
40
80
80
FC
ENDCHAR
STARTCHAR char91
ENCODING 91
SWIDTH 312 0
DWIDTH 5 0
BBX 4 10 0 0
BITMAP
F0
80
80
80
80
80
80
80
80
F0
ENDCHAR
STARTCHAR char92
ENCODING 92
SWIDTH 437 0
DWIDTH 7 0
BBX 6 9 0 0
BITMAP
80
80
40
20
10
10
08
04
04
ENDCHAR
STARTCHAR char93
ENCODING 93
SWIDTH 312 0
DWIDTH 5 0
BBX 4 10 0 0
BITMAP
F0
10
10
10
10
10
10
10
10
F0
ENDCHAR
STARTCHAR char94
ENCODING 94
SWIDTH 375 0
DWIDTH 6 0
BBX 5 3 0 9
BITMAP
20
50
88
ENDCHAR
STARTCHAR char95
ENCODING 95
SWIDTH 500 0
DWIDTH 8 0
BBX 8 1 0 -2
BITMAP
FF
ENDCHAR
STARTCHAR char96
ENCODING 96
SWIDTH 250 0
DWIDTH 4 0
BBX 3 3 0 9
BITMAP
80
40
20
ENDCHAR
STARTCHAR char97
ENCODING 97
SWIDTH 437 0
DWIDTH 7 0
BBX 6 7 0 0
BITMAP
3C
44
84
84
84
4C
34
ENDCHAR
STARTCHAR char98
ENCODING 98
SWIDTH 437 0
DWIDTH 7 0
BBX 6 10 0 0
BITMAP
80
80
80
B0
C8
84
84
84
C8
B0
ENDCHAR
STARTCHAR char99
ENCODING 99
SWIDTH 437 0
DWIDTH 7 0
BBX 6 7 0 0
BITMAP
38
44
80
80
80
44
38
ENDCHAR
STARTCHAR char100
ENCODING 100
SWIDTH 437 0
DWIDTH 7 0
BBX 6 10 0 0
BITMAP
04
04
04
34
4C
84
84
84
4C
34
ENDCHAR
STARTCHAR char101
ENCODING 101
SWIDTH 437 0
DWIDTH 7 0
BBX 6 7 0 0
BITMAP
38
44
84
FC
80
80
78
ENDCHAR
STARTCHAR char102
ENCODING 102
SWIDTH 375 0
DWIDTH 6 0
BBX 6 10 0 0
BITMAP
18
24
20
20
F8
20
20
20
20
20
ENDCHAR
STARTCHAR char103
ENCODING 103
SWIDTH 437 0
DWIDTH 7 0
BBX 6 10 0 -3
BITMAP
78
84
84
84
84
8C
74
04
04
78
ENDCHAR
STARTCHAR char104
ENCODING 104
SWIDTH 437 0
DWIDTH 7 0
BBX 6 10 0 0
BITMAP
80
80
80
B8
C4
84
84
84
84
84
ENDCHAR
STARTCHAR char105
ENCODING 105
SWIDTH 125 0
DWIDTH 2 0
BBX 1 10 0 0
BITMAP
80
80
00
80
80
80
80
80
80
80
ENDCHAR
STARTCHAR char106
ENCODING 106
SWIDTH 250 0
DWIDTH 4 0
BBX 3 13 0 -3
BITMAP
20
20
00
20
20
20
20
20
20
20
20
A0
40
ENDCHAR
STARTCHAR char107
ENCODING 107
SWIDTH 375 0
DWIDTH 6 0
BBX 5 10 0 0
BITMAP
80
80
80
88
90
A0
C0
A0
90
88
ENDCHAR
STARTCHAR char108
ENCODING 108
SWIDTH 187 0
DWIDTH 3 0
BBX 2 10 0 0
BITMAP
80
80
80
80
80
80
80
80
80
40
ENDCHAR
STARTCHAR char109
ENCODING 109
SWIDTH 500 0
DWIDTH 8 0
BBX 7 7 0 0
BITMAP
6C
92
92
92
92
92
82
ENDCHAR
STARTCHAR char110
ENCODING 110
SWIDTH 437 0
DWIDTH 7 0
BBX 6 7 0 0
BITMAP
B0
C8
84
84
84
84
84
ENDCHAR
STARTCHAR char111
ENCODING 111
SWIDTH 437 0
DWIDTH 7 0
BBX 6 7 0 0
BITMAP
30
48
84
84
84
48
30
ENDCHAR
STARTCHAR char112
ENCODING 112
SWIDTH 437 0
DWIDTH 7 0
BBX 6 10 0 -3
BITMAP
F0
88
84
84
84
88
F0
80
80
80
ENDCHAR
STARTCHAR char113
ENCODING 113
SWIDTH 437 0
DWIDTH 7 0
BBX 7 10 0 -3
BITMAP
30
48
84
84
84
4C
34
04
06
04
ENDCHAR
STARTCHAR char114
ENCODING 114
SWIDTH 437 0
DWIDTH 7 0
BBX 6 7 0 0
BITMAP
38
44
80
80
80
80
80
ENDCHAR
STARTCHAR char115
ENCODING 115
SWIDTH 437 0
DWIDTH 7 0
BBX 6 7 0 0
BITMAP
78
84
80
78
04
84
78
ENDCHAR
STARTCHAR char116
ENCODING 116
SWIDTH 375 0
DWIDTH 6 0
BBX 5 10 0 0
BITMAP
20
20
20
F8
20
20
20
20
20
20
ENDCHAR
STARTCHAR char117
ENCODING 117
SWIDTH 437 0
DWIDTH 7 0
BBX 6 7 0 0
BITMAP
84
84
84
84
84
4C
34
ENDCHAR
STARTCHAR char118
ENCODING 118
SWIDTH 437 0
DWIDTH 7 0
BBX 6 7 0 0
BITMAP
84
84
84
48
48
48
30
ENDCHAR
STARTCHAR char119
ENCODING 119
SWIDTH 500 0
DWIDTH 8 0
BBX 7 7 0 0
BITMAP
82
82
92
92
92
92
6C
ENDCHAR
STARTCHAR char120
ENCODING 120
SWIDTH 500 0
DWIDTH 8 0
BBX 7 7 0 0
BITMAP
82
44
28
10
28
44
82
ENDCHAR
STARTCHAR char121
ENCODING 121
SWIDTH 437 0
DWIDTH 7 0
BBX 6 10 0 -3
BITMAP
84
84
84
84
84
8C
74
04
04
78
ENDCHAR
STARTCHAR char122
ENCODING 122
SWIDTH 437 0
DWIDTH 7 0
BBX 6 7 0 0
BITMAP
FC
04
08
10
20
40
FC
ENDCHAR
STARTCHAR char123
ENCODING 123
SWIDTH 312 0
DWIDTH 5 0
BBX 4 13 0 -2
BITMAP
70
80
80
40
20
40
80
40
20
40
80
80
70
ENDCHAR
STARTCHAR char124
ENCODING 124
SWIDTH 125 0
DWIDTH 2 0
BBX 1 12 0 -1
BITMAP
80
80
80
80
80
80
80
80
80
80
80
80
ENDCHAR
STARTCHAR char125
ENCODING 125
SWIDTH 312 0
DWIDTH 5 0
BBX 4 13 0 -2
BITMAP
E0
10
10
20
40
20
10
20
40
20
10
10
E0
ENDCHAR
STARTCHAR char126
ENCODING 126
SWIDTH 437 0
DWIDTH 7 0
BBX 6 2 0 8
BITMAP
64
98
ENDCHAR
STARTCHAR house
ENCODING 127
SWIDTH 1000 0
DWIDTH 8 0
BBX 7 7 0 1
BITMAP
10
28
44
82
82
82
FE
ENDCHAR
STARTCHAR char255
ENCODING 160
SWIDTH 1000 0
DWIDTH 0 0
BBX 1 1 7 -4
BITMAP
00
ENDCHAR
STARTCHAR exclamdown
ENCODING 161
SWIDTH 1000 0
DWIDTH 2 0
BBX 1 10 0 0
BITMAP
80
80
00
80
80
80
80
80
80
80
ENDCHAR
STARTCHAR cent
ENCODING 162
SWIDTH 1000 0
DWIDTH 6 0
BBX 5 11 0 0
BITMAP
20
20
30
48
80
80
80
48
30
20
20
ENDCHAR
STARTCHAR sterling
ENCODING 163
SWIDTH 1000 0
DWIDTH 7 0
BBX 6 11 0 0
BITMAP
18
24
20
20
78
20
78
20
20
60
BC
ENDCHAR
STARTCHAR yen
ENCODING 165
SWIDTH 1000 0
DWIDTH 6 0
BBX 5 10 0 0
BITMAP
88
88
70
20
F8
20
F8
20
20
20
ENDCHAR
STARTCHAR ordfeminine
ENCODING 170
SWIDTH 1000 0
DWIDTH 7 0
BBX 6 6 0 5
BITMAP
78
88
88
7C
00
FC
ENDCHAR
STARTCHAR guillemotleft
ENCODING 171
SWIDTH 1000 0
DWIDTH 7 0
BBX 6 5 0 2
BITMAP
24
48
90
48
24
ENDCHAR
STARTCHAR logicalnot
ENCODING 172
SWIDTH 1000 0
DWIDTH 7 0
BBX 6 5 0 1
BITMAP
FC
04
04
04
04
ENDCHAR
STARTCHAR degree
ENCODING 176
SWIDTH 1000 0
DWIDTH 5 0
BBX 4 4 0 7
BITMAP
60
90
90
60
ENDCHAR
STARTCHAR plusminus
ENCODING 177
SWIDTH 1000 0
DWIDTH 6 0
BBX 5 8 0 0
BITMAP
20
20
F8
20
20
00
00
F8
ENDCHAR
STARTCHAR uni00B2
ENCODING 178
SWIDTH 1000 0
DWIDTH 6 0
BBX 5 6 0 5
BITMAP
70
88
10
20
40
78
ENDCHAR
STARTCHAR mu
ENCODING 181
SWIDTH 1000 0
DWIDTH 7 0
BBX 6 9 0 -1
BITMAP
44
44
44
44
44
68
50
40
80
ENDCHAR
STARTCHAR periodcentered
ENCODING 183
SWIDTH 1000 0
DWIDTH 7 0
BBX 1 1 3 3
BITMAP
80
ENDCHAR
STARTCHAR ordmasculine
ENCODING 186
SWIDTH 1000 0
DWIDTH 6 0
BBX 5 6 0 5
BITMAP
70
88
88
70
00
F8
ENDCHAR
STARTCHAR guillemotright
ENCODING 187
SWIDTH 1000 0
DWIDTH 7 0
BBX 6 5 0 2
BITMAP
90
48
24
48
90
ENDCHAR
STARTCHAR onequarter
ENCODING 188
SWIDTH 1000 0
DWIDTH 7 0
BBX 6 13 0 -2
BITMAP
40
40
40
44
48
10
20
40
98
28
3C
08
08
ENDCHAR
STARTCHAR onehalf
ENCODING 189
SWIDTH 1000 0
DWIDTH 7 0
BBX 6 13 0 -2
BITMAP
40
40
40
44
48
10
20
40
98
24
08
10
3C
ENDCHAR
STARTCHAR questiondown
ENCODING 191
SWIDTH 1000 0
DWIDTH 6 0
BBX 5 10 0 0
BITMAP
20
20
00
20
20
40
80
80
88
70
ENDCHAR
STARTCHAR Adieresis
ENCODING 196
SWIDTH 1000 0
DWIDTH 7 0
BBX 6 12 0 0
BITMAP
48
48
00
30
48
84
84
84
FC
84
84
84
ENDCHAR
STARTCHAR Aring
ENCODING 197
SWIDTH 1000 0
DWIDTH 7 0
BBX 6 12 0 0
BITMAP
30
48
30
00
30
48
84
84
FC
84
84
84
ENDCHAR
STARTCHAR AE
ENCODING 198
SWIDTH 1000 0
DWIDTH 7 0
BBX 6 10 0 0
BITMAP
3C
50
90
90
FC
90
90
90
90
9C
ENDCHAR
STARTCHAR Ccedilla
ENCODING 199
SWIDTH 1000 0
DWIDTH 7 0
BBX 6 12 0 -2
BITMAP
30
48
84
80
80
80
84
48
30
08
44
38
ENDCHAR
STARTCHAR Eacute
ENCODING 201
SWIDTH 1000 0
DWIDTH 7 0
BBX 6 12 0 0
BITMAP
08
10
20
00
FC
80
80
F0
80
80
80
FC
ENDCHAR
STARTCHAR Ntilde
ENCODING 209
SWIDTH 1000 0
DWIDTH 7 0
BBX 6 12 0 0
BITMAP
64
98
00
84
84
C4
A4
A4
94
94
8C
84
ENDCHAR
STARTCHAR Odieresis
ENCODING 214
SWIDTH 1000 0
DWIDTH 7 0
BBX 6 12 0 0
BITMAP
48
48
00
30
48
84
84
84
84
84
48
30
ENDCHAR
STARTCHAR Udieresis
ENCODING 220
SWIDTH 1000 0
DWIDTH 7 0
BBX 6 12 0 0
BITMAP
48
48
00
84
84
84
84
84
84
84
48
30
ENDCHAR
STARTCHAR germandbls
ENCODING 223
SWIDTH 1000 0
DWIDTH 7 0
BBX 6 10 0 0
BITMAP
60
90
88
90
A0
90
88
84
88
90
ENDCHAR
STARTCHAR agrave
ENCODING 224
SWIDTH 1000 0
DWIDTH 7 0
BBX 6 11 0 0
BITMAP
20
10
08
00
3C
44
84
84
84
4C
34
ENDCHAR
STARTCHAR aacute
ENCODING 225
SWIDTH 1000 0
DWIDTH 7 0
BBX 6 11 0 0
BITMAP
08
10
20
00
3C
44
84
84
84
4C
34
ENDCHAR
STARTCHAR acircumflex
ENCODING 226
SWIDTH 1000 0
DWIDTH 7 0
BBX 6 11 0 0
BITMAP
10
28
44
00
3C
44
84
84
84
4C
34
ENDCHAR
STARTCHAR adieresis
ENCODING 228
SWIDTH 1000 0
DWIDTH 7 0
BBX 6 11 0 0
BITMAP
48
48
00
00
3C
44
84
84
84
4C
34
ENDCHAR
STARTCHAR aring
ENCODING 229
SWIDTH 1000 0
DWIDTH 7 0
BBX 6 11 0 0
BITMAP
30
48
30
00
3C
44
84
84
84
4C
34
ENDCHAR
STARTCHAR ae
ENCODING 230
SWIDTH 1000 0
DWIDTH 8 0
BBX 7 8 0 0
BITMAP
6C
92
92
7C
90
90
90
6C
ENDCHAR
STARTCHAR ccedilla
ENCODING 231
SWIDTH 1000 0
DWIDTH 7 0
BBX 6 9 0 -1
BITMAP
38
44
80
80
44
38
10
08
70
ENDCHAR
STARTCHAR egrave
ENCODING 232
SWIDTH 1000 0
DWIDTH 7 0
BBX 6 11 0 0
BITMAP
20
10
08
00
38
44
84
FC
80
80
78
ENDCHAR
STARTCHAR eacute
ENCODING 233
SWIDTH 1000 0
DWIDTH 7 0
BBX 6 11 0 0
BITMAP
08
10
20
00
38
44
84
FC
80
80
78
ENDCHAR
STARTCHAR ecircumflex
ENCODING 234
SWIDTH 1000 0
DWIDTH 7 0
BBX 6 11 0 0
BITMAP
10
28
44
00
38
44
84
FC
80
80
78
ENDCHAR
STARTCHAR edieresis
ENCODING 235
SWIDTH 1000 0
DWIDTH 7 0
BBX 6 11 0 0
BITMAP
48
48
00
00
38
44
84
FC
80
80
78
ENDCHAR
STARTCHAR igrave
ENCODING 236
SWIDTH 1000 0
DWIDTH 4 0
BBX 3 11 0 0
BITMAP
80
40
20
00
40
40
40
40
40
40
40
ENDCHAR
STARTCHAR iacute
ENCODING 237
SWIDTH 1000 0
DWIDTH 4 0
BBX 3 11 0 0
BITMAP
20
40
80
00
80
80
80
80
80
80
80
ENDCHAR
STARTCHAR icircumflex
ENCODING 238
SWIDTH 1000 0
DWIDTH 6 0
BBX 5 11 0 0
BITMAP
20
50
88
00
20
20
20
20
20
20
20
ENDCHAR
STARTCHAR idieresis
ENCODING 239
SWIDTH 1000 0
DWIDTH 4 0
BBX 3 11 0 0
BITMAP
A0
A0
00
00
40
40
40
40
40
40
40
ENDCHAR
STARTCHAR ntilde
ENCODING 241
SWIDTH 1000 0
DWIDTH 7 0
BBX 6 10 0 0
BITMAP
64
98
00
B8
C4
84
84
84
84
84
ENDCHAR
STARTCHAR ograve
ENCODING 242
SWIDTH 1000 0
DWIDTH 7 0
BBX 6 11 0 0
BITMAP
20
10
08
00
30
48
84
84
84
48
30
ENDCHAR
STARTCHAR oacute
ENCODING 243
SWIDTH 1000 0
DWIDTH 7 0
BBX 6 11 0 0
BITMAP
08
10
20
00
30
48
84
84
84
48
30
ENDCHAR
STARTCHAR ocircumflex
ENCODING 244
SWIDTH 1000 0
DWIDTH 7 0
BBX 6 11 0 0
BITMAP
10
28
44
00
30
48
84
84
84
48
30
ENDCHAR
STARTCHAR odieresis
ENCODING 246
SWIDTH 1000 0
DWIDTH 7 0
BBX 6 11 0 0
BITMAP
48
48
00
00
30
48
84
84
84
48
30
ENDCHAR
STARTCHAR divide
ENCODING 247
SWIDTH 1000 0
DWIDTH 6 0
BBX 5 7 0 1
BITMAP
20
20
00
F8
00
20
20
ENDCHAR
STARTCHAR ugrave
ENCODING 249
SWIDTH 1000 0
DWIDTH 7 0
BBX 6 11 0 0
BITMAP
20
10
08
00
84
84
84
84
84
4C
34
ENDCHAR
STARTCHAR uacute
ENCODING 250
SWIDTH 1000 0
DWIDTH 7 0
BBX 6 11 0 0
BITMAP
08
10
20
00
84
84
84
84
84
4C
34
ENDCHAR
STARTCHAR ucircumflex
ENCODING 251
SWIDTH 1000 0
DWIDTH 7 0
BBX 6 11 0 0
BITMAP
10
28
44
00
84
84
84
84
84
4C
34
ENDCHAR
STARTCHAR udieresis
ENCODING 252
SWIDTH 1000 0
DWIDTH 7 0
BBX 6 11 0 0
BITMAP
48
48
00
00
84
84
84
84
84
4C
34
ENDCHAR
STARTCHAR ydieresis
ENCODING 255
SWIDTH 1000 0
DWIDTH 7 0
BBX 6 14 0 -3
BITMAP
48
48
00
00
84
84
84
84
4C
34
04
84
44
38
ENDCHAR
STARTCHAR franc
ENCODING 402
SWIDTH 1000 0
DWIDTH 7 0
BBX 6 13 0 -2
BITMAP
08
14
20
20
20
F8
20
20
20
20
20
A0
40
ENDCHAR
STARTCHAR Gamma
ENCODING 915
SWIDTH 1000 0
DWIDTH 7 0
BBX 6 10 0 0
BITMAP
FC
84
84
80
80
80
80
80
80
80
ENDCHAR
STARTCHAR Theta
ENCODING 920
SWIDTH 1000 0
DWIDTH 7 0
BBX 6 9 0 0
BITMAP
30
48
84
84
FC
84
84
48
30
ENDCHAR
STARTCHAR Sigma
ENCODING 931
SWIDTH 1000 0
DWIDTH 7 0
BBX 6 9 0 0
BITMAP
FC
80
40
20
10
20
40
80
FC
ENDCHAR
STARTCHAR Phi
ENCODING 934
SWIDTH 1000 0
DWIDTH 7 0
BBX 6 9 0 0
BITMAP
FC
30
48
84
84
84
48
30
FC
ENDCHAR
STARTCHAR uni03A9
ENCODING 937
SWIDTH 1000 0
DWIDTH 7 0
BBX 6 10 0 0
BITMAP
30
48
84
84
84
48
30
30
48
84
ENDCHAR
STARTCHAR alpha
ENCODING 945
SWIDTH 1000 0
DWIDTH 7 0
BBX 6 7 0 0
BITMAP
64
98
90
90
90
98
64
ENDCHAR
STARTCHAR delta
ENCODING 948
SWIDTH 1000 0
DWIDTH 7 0
BBX 6 10 0 0
BITMAP
3C
40
20
10
28
44
84
84
48
30
ENDCHAR
STARTCHAR epsilon
ENCODING 949
SWIDTH 1000 0
DWIDTH 7 0
BBX 5 10 1 0
BITMAP
38
40
80
80
F8
80
80
80
40
38
ENDCHAR
STARTCHAR pi
ENCODING 960
SWIDTH 1000 0
DWIDTH 7 0
BBX 6 8 0 0
BITMAP
FC
48
48
48
48
48
48
48
ENDCHAR
STARTCHAR sigma
ENCODING 963
SWIDTH 1000 0
DWIDTH 7 0
BBX 6 7 0 0
BITMAP
3C
48
88
88
88
50
20
ENDCHAR
STARTCHAR tau
ENCODING 964
SWIDTH 1000 0
DWIDTH 7 0
BBX 6 8 0 0
BITMAP
44
A8
30
20
20
20
20
20
ENDCHAR
STARTCHAR phi
ENCODING 966
SWIDTH 1000 0
DWIDTH 9 0
BBX 8 9 0 0
BITMAP
02
04
3C
4A
91
52
3C
20
40
ENDCHAR
STARTCHAR uni207F
ENCODING 8319
SWIDTH 1000 0
DWIDTH 7 0
BBX 6 6 0 5
BITMAP
D8
24
24
24
24
24
ENDCHAR
STARTCHAR peseta
ENCODING 8359
SWIDTH 1000 0
DWIDTH 7 0
BBX 6 11 0 0
BITMAP
F0
88
88
F0
88
88
9C
88
88
88
8C
ENDCHAR
STARTCHAR uni2219
ENCODING 8729
SWIDTH 1000 0
DWIDTH 7 0
BBX 1 2 3 3
BITMAP
80
80
ENDCHAR
STARTCHAR radical
ENCODING 8730
SWIDTH 1000 0
DWIDTH 8 0
BBX 8 11 0 0
BITMAP
0F
08
08
08
08
08
88
48
48
28
18
ENDCHAR
STARTCHAR infinity
ENCODING 8734
SWIDTH 1000 0
DWIDTH 8 0
BBX 7 5 0 2
BITMAP
38
54
92
54
38
ENDCHAR
STARTCHAR intersection
ENCODING 8745
SWIDTH 1000 0
DWIDTH 7 0
BBX 6 9 0 0
BITMAP
30
48
84
84
84
84
84
84
84
ENDCHAR
STARTCHAR approxequal
ENCODING 8776
SWIDTH 1000 0
DWIDTH 7 0
BBX 6 5 0 2
BITMAP
64
98
00
64
98
ENDCHAR
STARTCHAR equivalence
ENCODING 8801
SWIDTH 1000 0
DWIDTH 7 0
BBX 6 7 0 1
BITMAP
FC
00
00
FC
00
00
FC
ENDCHAR
STARTCHAR lessequal
ENCODING 8804
SWIDTH 1000 0
DWIDTH 5 0
BBX 4 9 0 0
BITMAP
10
20
40
80
40
20
10
00
F0
ENDCHAR
STARTCHAR greaterequal
ENCODING 8805
SWIDTH 1000 0
DWIDTH 5 0
BBX 4 9 0 0
BITMAP
80
40
20
10
20
40
80
00
F0
ENDCHAR
STARTCHAR revlogicalnot
ENCODING 8976
SWIDTH 1000 0
DWIDTH 7 0
BBX 6 5 0 1
BITMAP
FC
80
80
80
80
ENDCHAR
STARTCHAR integraltp
ENCODING 8992
SWIDTH 1000 0
DWIDTH 9 0
BBX 5 14 4 -4
BITMAP
20
50
88
88
80
80
80
80
80
80
80
80
80
80
ENDCHAR
STARTCHAR integralbt
ENCODING 8993
SWIDTH 1000 0
DWIDTH 9 0
BBX 5 12 0 0
BITMAP
08
08
08
08
08
08
08
08
88
88
50
20
ENDCHAR
STARTCHAR SF100000
ENCODING 9472
SWIDTH 1000 0
DWIDTH 8 0
BBX 8 1 0 4
BITMAP
FF
ENDCHAR
STARTCHAR SF110000
ENCODING 9474
SWIDTH 1000 0
DWIDTH 8 0
BBX 1 16 3 -4
BITMAP
80
80
80
80
80
80
80
80
80
80
80
80
80
80
80
80
ENDCHAR
STARTCHAR SF010000
ENCODING 9484
SWIDTH 1000 0
DWIDTH 8 0
BBX 5 9 3 -4
BITMAP
F8
80
80
80
80
80
80
80
80
ENDCHAR
STARTCHAR SF030000
ENCODING 9488
SWIDTH 1000 0
DWIDTH 8 0
BBX 4 9 0 -4
BITMAP
F0
10
10
10
10
10
10
10
10
ENDCHAR
STARTCHAR SF020000
ENCODING 9492
SWIDTH 1000 0
DWIDTH 8 0
BBX 5 8 3 4
BITMAP
80
80
80
80
80
80
80
F8
ENDCHAR
STARTCHAR SF040000
ENCODING 9496
SWIDTH 1000 0
DWIDTH 8 0
BBX 4 8 0 4
BITMAP
10
10
10
10
10
10
10
F0
ENDCHAR
STARTCHAR SF080000
ENCODING 9500
SWIDTH 1000 0
DWIDTH 8 0
BBX 5 16 3 -4
BITMAP
80
80
80
80
80
80
80
F8
80
80
80
80
80
80
80
80
ENDCHAR
STARTCHAR SF090000
ENCODING 9508
SWIDTH 1000 0
DWIDTH 8 0
BBX 4 16 0 -4
BITMAP
10
10
10
10
10
10
10
F0
10
10
10
10
10
10
10
10
ENDCHAR
STARTCHAR SF060000
ENCODING 9516
SWIDTH 1000 0
DWIDTH 8 0
BBX 8 9 0 -4
BITMAP
FF
10
10
10
10
10
10
10
10
ENDCHAR
STARTCHAR SF070000
ENCODING 9524
SWIDTH 1000 0
DWIDTH 8 0
BBX 8 8 0 4
BITMAP
10
10
10
10
10
10
10
FF
ENDCHAR
STARTCHAR SF050000
ENCODING 9532
SWIDTH 1000 0
DWIDTH 8 0
BBX 8 16 0 -4
BITMAP
10
10
10
10
10
10
10
FF
10
10
10
10
10
10
10
10
ENDCHAR
STARTCHAR SF430000
ENCODING 9552
SWIDTH 1000 0
DWIDTH 8 0
BBX 8 3 0 4
BITMAP
FF
00
FF
ENDCHAR
STARTCHAR SF240000
ENCODING 9553
SWIDTH 1000 0
DWIDTH 8 0
BBX 3 16 3 -4
BITMAP
A0
A0
A0
A0
A0
A0
A0
A0
A0
A0
A0
A0
A0
A0
A0
A0
ENDCHAR
STARTCHAR SF510000
ENCODING 9554
SWIDTH 1000 0
DWIDTH 8 0
BBX 5 11 3 -4
BITMAP
F8
80
F8
80
80
80
80
80
80
80
80
ENDCHAR
STARTCHAR SF520000
ENCODING 9555
SWIDTH 1000 0
DWIDTH 8 0
BBX 5 9 3 -4
BITMAP
F8
A0
A0
A0
A0
A0
A0
A0
A0
ENDCHAR
STARTCHAR SF390000
ENCODING 9556
SWIDTH 1000 0
DWIDTH 8 0
BBX 5 11 3 -4
BITMAP
F8
80
B8
A0
A0
A0
A0
A0
A0
A0
A0
ENDCHAR
STARTCHAR SF220000
ENCODING 9557
SWIDTH 1000 0
DWIDTH 8 0
BBX 4 11 0 -4
BITMAP
F0
10
F0
10
10
10
10
10
10
10
10
ENDCHAR
STARTCHAR SF210000
ENCODING 9558
SWIDTH 1000 0
DWIDTH 8 0
BBX 6 9 0 -4
BITMAP
FC
14
14
14
14
14
14
14
14
ENDCHAR
STARTCHAR SF250000
ENCODING 9559
SWIDTH 1000 0
DWIDTH 8 0
BBX 6 11 0 -4
BITMAP
FC
04
F4
14
14
14
14
14
14
14
14
ENDCHAR
STARTCHAR SF500000
ENCODING 9560
SWIDTH 1000 0
DWIDTH 8 0
BBX 5 8 3 4
BITMAP
80
80
80
80
80
F8
80
F8
ENDCHAR
STARTCHAR SF490000
ENCODING 9561
SWIDTH 1000 0
DWIDTH 8 0
BBX 5 8 3 4
BITMAP
A0
A0
A0
A0
A0
A0
A0
F8
ENDCHAR
STARTCHAR SF380000
ENCODING 9562
SWIDTH 1000 0
DWIDTH 8 0
BBX 5 8 3 4
BITMAP
A0
A0
A0
A0
A0
B8
80
F8
ENDCHAR
STARTCHAR SF280000
ENCODING 9563
SWIDTH 1000 0
DWIDTH 8 0
BBX 5 8 0 4
BITMAP
08
08
08
08
08
F8
08
F8
ENDCHAR
STARTCHAR SF270000
ENCODING 9564
SWIDTH 1000 0
DWIDTH 8 0
BBX 6 8 0 4
BITMAP
14
14
14
14
14
14
14
FC
ENDCHAR
STARTCHAR SF260000
ENCODING 9565
SWIDTH 1000 0
DWIDTH 8 0
BBX 6 8 0 4
BITMAP
14
14
14
14
14
F4
04
FC
ENDCHAR
STARTCHAR SF360000
ENCODING 9566
SWIDTH 1000 0
DWIDTH 8 0
BBX 5 16 3 -4
BITMAP
80
80
80
80
80
F8
80
F8
80
80
80
80
80
80
80
80
ENDCHAR
STARTCHAR SF370000
ENCODING 9567
SWIDTH 1000 0
DWIDTH 8 0
BBX 5 16 3 -4
BITMAP
A0
A0
A0
A0
A0
A0
A0
B8
A0
A0
A0
A0
A0
A0
A0
A0
ENDCHAR
STARTCHAR SF420000
ENCODING 9568
SWIDTH 1000 0
DWIDTH 8 0
BBX 5 16 3 -4
BITMAP
A0
A0
A0
A0
A0
B8
80
B8
A0
A0
A0
A0
A0
A0
A0
A0
ENDCHAR
STARTCHAR SF190000
ENCODING 9569
SWIDTH 1000 0
DWIDTH 8 0
BBX 4 16 0 -4
BITMAP
10
10
10
10
10
F0
10
F0
10
10
10
10
10
10
10
10
ENDCHAR
STARTCHAR SF200000
ENCODING 9570
SWIDTH 1000 0
DWIDTH 8 0
BBX 6 16 0 -4
BITMAP
14
14
14
14
14
14
14
F4
14
14
14
14
14
14
14
14
ENDCHAR
STARTCHAR SF230000
ENCODING 9571
SWIDTH 1000 0
DWIDTH 8 0
BBX 6 16 0 -4
BITMAP
14
14
14
14
14
F4
04
F4
14
14
14
14
14
14
14
14
ENDCHAR
STARTCHAR SF470000
ENCODING 9572
SWIDTH 1000 0
DWIDTH 8 0
BBX 8 11 0 -4
BITMAP
FF
00
FF
10
10
10
10
10
10
10
10
ENDCHAR
STARTCHAR SF480000
ENCODING 9573
SWIDTH 1000 0
DWIDTH 8 0
BBX 8 9 0 -4
BITMAP
FF
14
14
14
14
14
14
14
14
ENDCHAR
STARTCHAR SF410000
ENCODING 9574
SWIDTH 1000 0
DWIDTH 8 0
BBX 8 11 0 -4
BITMAP
FF
00
F7
14
14
14
14
14
14
14
14
ENDCHAR
STARTCHAR SF450000
ENCODING 9575
SWIDTH 1000 0
DWIDTH 8 0
BBX 8 8 0 4
BITMAP
10
10
10
10
10
FF
00
FF
ENDCHAR
STARTCHAR SF460000
ENCODING 9576
SWIDTH 1000 0
DWIDTH 8 0
BBX 8 8 0 4
BITMAP
14
14
14
14
14
14
14
FF
ENDCHAR
STARTCHAR SF400000
ENCODING 9577
SWIDTH 1000 0
DWIDTH 8 0
BBX 8 8 0 4
BITMAP
14
14
14
14
14
F7
00
FF
ENDCHAR
STARTCHAR SF540000
ENCODING 9578
SWIDTH 1000 0
DWIDTH 8 0
BBX 8 16 0 -4
BITMAP
10
10
10
10
10
FF
10
FF
10
10
10
10
10
10
10
10
ENDCHAR
STARTCHAR SF530000
ENCODING 9579
SWIDTH 1000 0
DWIDTH 8 0
BBX 8 16 0 -4
BITMAP
14
14
14
14
14
14
14
FF
14
14
14
14
14
14
14
14
ENDCHAR
STARTCHAR SF440000
ENCODING 9580
SWIDTH 1000 0
DWIDTH 8 0
BBX 8 16 0 -4
BITMAP
14
14
14
14
14
F7
00
F7
14
14
14
14
14
14
14
14
ENDCHAR
STARTCHAR upblock
ENCODING 9600
SWIDTH 1000 0
DWIDTH 8 0
BBX 8 7 0 5
BITMAP
FF
FF
FF
FF
FF
FF
FF
ENDCHAR
STARTCHAR dnblock
ENCODING 9604
SWIDTH 1000 0
DWIDTH 8 0
BBX 8 9 0 -4
BITMAP
FF
FF
FF
FF
FF
FF
FF
FF
FF
ENDCHAR
STARTCHAR block
ENCODING 9608
SWIDTH 1000 0
DWIDTH 8 0
BBX 8 16 0 -4
BITMAP
FF
FF
FF
FF
FF
FF
FF
FF
FF
FF
FF
FF
FF
FF
FF
FF
ENDCHAR
STARTCHAR lfblock
ENCODING 9612
SWIDTH 1000 0
DWIDTH 8 0
BBX 4 16 0 -4
BITMAP
F0
F0
F0
F0
F0
F0
F0
F0
F0
F0
F0
F0
F0
F0
F0
F0
ENDCHAR
STARTCHAR rtblock
ENCODING 9616
SWIDTH 1000 0
DWIDTH 8 0
BBX 4 16 4 -4
BITMAP
F0
F0
F0
F0
F0
F0
F0
F0
F0
F0
F0
F0
F0
F0
F0
F0
ENDCHAR
STARTCHAR ltshade
ENCODING 9617
SWIDTH 1000 0
DWIDTH 8 0
BBX 7 16 0 -4
BITMAP
22
88
22
88
22
88
22
88
22
88
22
88
22
88
22
88
ENDCHAR
STARTCHAR shade
ENCODING 9618
SWIDTH 1000 0
DWIDTH 8 0
BBX 8 16 0 -4
BITMAP
55
AA
55
AA
55
AA
55
AA
55
AA
55
AA
55
AA
55
AA
ENDCHAR
STARTCHAR dkshade
ENCODING 9619
SWIDTH 1000 0
DWIDTH 8 0
BBX 8 16 0 -4
BITMAP
DD
77
DD
77
DD
77
DD
77
DD
77
DD
77
DD
77
DD
77
ENDCHAR
STARTCHAR filledbox
ENCODING 9632
SWIDTH 1000 0
DWIDTH 6 0
BBX 5 7 0 1
BITMAP
F8
F8
F8
F8
F8
F8
F8
ENDCHAR
ENDFONT
